<svg enable-background="new 0 0 32 32" height="32" viewBox="0 0 32 32" width="32" xmlns="http://www.w3.org/2000/svg"><g style="fill:none;stroke:#fff;stroke-linecap:round;stroke-linejoin:round;stroke-miterlimit:10;stroke-width:2"><path d="m649 137.999h26v18h-14"/><path d="m653 155.999h-4v-14"/><path d="m661 156-8 6v-6"/></g><path d="m16 25c-4.265 0-8.301-1.807-11.367-5.088-.377-.403-.355-1.036.048-1.413.404-.377 1.036-.355 1.414.048 2.683 2.872 6.2 4.453 9.905 4.453 4.763 0 9.149-2.605 11.84-7-2.69-4.395-7.077-7-11.84-7-4.938 0-9.472 2.801-12.13 7.493-.272.481-.884.651-1.363.377-.481-.272-.649-.882-.377-1.363 3.017-5.327 8.203-8.507 13.87-8.507 5.668 0 10.853 3.18 13.87 8.507.173.306.173.68 0 .985-3.017 5.327-8.202 8.508-13.87 8.508z"/><path d="m16 21c-2.757 0-5-2.243-5-5s2.243-5 5-5 5 2.243 5 5-2.243 5-5 5zm0-8c-1.654 0-3 1.346-3 3s1.346 3 3 3 3-1.346 3-3-1.346-3-3-3z"/></svg>