<?xml version="1.0" encoding="UTF-8" standalone="no"?>
<!DOCTYPE svg PUBLIC "-//W3C//DTD SVG 1.1//EN"
 "http://www.w3.org/Graphics/SVG/1.1/DTD/svg11.dtd">
<!-- Generated by graphviz version 5.0.0 (20220707.1540)
 -->
<!-- Title: dependencies Pages: 1 -->
<svg width="386pt" height="247pt"
 viewBox="0.00 0.00 386.00 246.80" xmlns="http://www.w3.org/2000/svg" xmlns:xlink="http://www.w3.org/1999/xlink">
<g id="graph0" class="graph" transform="scale(1 1) rotate(0) translate(4 242.8)">
<title>dependencies</title>
<polygon fill="white" stroke="transparent" points="-4,4 -4,-242.8 382,-242.8 382,4 -4,4"/>
<text text-anchor="middle" x="189" y="-8.2" font-family="sans-serif" font-size="14.00">dependencies</text>
<g id="clust1" class="cluster">
<title>cluster_ZenUikitLibModule</title>
<polygon fill="none" stroke="black" stroke-dasharray="1,5" points="8,-32.8 8,-230.8 370,-230.8 370,-32.8 8,-32.8"/>
</g>
<g id="clust2" class="cluster">
<title>cluster_ZenUikitLibModule_declarations</title>
<polygon fill="none" stroke="black" points="20,-40.8 20,-92.8 358,-92.8 358,-40.8 20,-40.8"/>
</g>
<g id="clust6" class="cluster">
<title>cluster_ZenUikitLibModule_exports</title>
<polygon fill="none" stroke="black" points="16,-170.8 16,-222.8 362,-222.8 362,-170.8 16,-170.8"/>
</g>
<!-- InputCheckboxComponent -->
<g id="node1" class="node">
<title>InputCheckboxComponent</title>
<polygon fill="#ffffb3" stroke="black" points="349.65,-84.8 182.35,-84.8 182.35,-48.8 349.65,-48.8 349.65,-84.8"/>
<text text-anchor="middle" x="266" y="-62.6" font-family="Times,serif" font-size="14.00">InputCheckboxComponent</text>
</g>
<!-- ZenUikitLibModule -->
<g id="node3" class="node">
<title>ZenUikitLibModule</title>
<polygon fill="#8dd3c7" stroke="black" points="161.54,-149.8 158.54,-153.8 137.54,-153.8 134.54,-149.8 32.46,-149.8 32.46,-113.8 161.54,-113.8 161.54,-149.8"/>
<text text-anchor="middle" x="97" y="-127.6" font-family="Times,serif" font-size="14.00">ZenUikitLibModule</text>
</g>
<!-- InputCheckboxComponent&#45;&gt;ZenUikitLibModule -->
<g id="edge1" class="edge">
<title>InputCheckboxComponent&#45;&gt;ZenUikitLibModule</title>
<path fill="none" stroke="black" d="M294.02,-84.82C294.02,-102.17 294.02,-125.8 294.02,-125.8 294.02,-125.8 171.79,-125.8 171.79,-125.8"/>
<polygon fill="black" stroke="black" points="171.79,-122.3 161.79,-125.8 171.79,-129.3 171.79,-122.3"/>
</g>
<!-- InputTextComponent -->
<g id="node2" class="node">
<title>InputTextComponent</title>
<polygon fill="#ffffb3" stroke="black" points="164.04,-84.8 27.96,-84.8 27.96,-48.8 164.04,-48.8 164.04,-84.8"/>
<text text-anchor="middle" x="96" y="-62.6" font-family="Times,serif" font-size="14.00">InputTextComponent</text>
</g>
<!-- InputTextComponent&#45;&gt;ZenUikitLibModule -->
<g id="edge2" class="edge">
<title>InputTextComponent&#45;&gt;ZenUikitLibModule</title>
<path fill="none" stroke="black" d="M97,-84.91C97,-84.91 97,-103.79 97,-103.79"/>
<polygon fill="black" stroke="black" points="93.5,-103.79 97,-113.79 100.5,-103.79 93.5,-103.79"/>
</g>
<!-- InputCheckboxComponent  -->
<g id="node4" class="node">
<title>InputCheckboxComponent </title>
<polygon fill="#fb8072" stroke="black" points="353.65,-214.8 182.35,-214.8 182.35,-178.8 353.65,-178.8 353.65,-214.8"/>
<text text-anchor="middle" x="268" y="-192.6" font-family="Times,serif" font-size="14.00">InputCheckboxComponent </text>
</g>
<!-- ZenUikitLibModule&#45;&gt;InputCheckboxComponent  -->
<g id="edge3" class="edge">
<title>ZenUikitLibModule&#45;&gt;InputCheckboxComponent </title>
<path fill="none" stroke="black" stroke-dasharray="5,2" d="M161.83,-137.8C198.95,-137.8 238.23,-137.8 238.23,-137.8 238.23,-137.8 238.23,-168.78 238.23,-168.78"/>
<polygon fill="black" stroke="black" points="234.73,-168.78 238.23,-178.78 241.73,-168.78 234.73,-168.78"/>
</g>
<!-- InputTextComponent  -->
<g id="node5" class="node">
<title>InputTextComponent </title>
<polygon fill="#fb8072" stroke="black" points="164.04,-214.8 23.96,-214.8 23.96,-178.8 164.04,-178.8 164.04,-214.8"/>
<text text-anchor="middle" x="94" y="-192.6" font-family="Times,serif" font-size="14.00">InputTextComponent </text>
</g>
<!-- ZenUikitLibModule&#45;&gt;InputTextComponent  -->
<g id="edge4" class="edge">
<title>ZenUikitLibModule&#45;&gt;InputTextComponent </title>
<path fill="none" stroke="black" stroke-dasharray="5,2" d="M97,-149.91C97,-149.91 97,-168.79 97,-168.79"/>
<polygon fill="black" stroke="black" points="93.5,-168.79 97,-178.79 100.5,-168.79 93.5,-168.79"/>
</g>
</g>
</svg>
