<?xml version="1.0" encoding="UTF-8" standalone="no"?>
<!DOCTYPE svg PUBLIC "-//W3C//DTD SVG 1.1//EN"
 "http://www.w3.org/Graphics/SVG/1.1/DTD/svg11.dtd">
<!-- Generated by graphviz version 5.0.0 (20220707.1540)
 -->
<!-- Title: dependencies Pages: 1 -->
<svg width="330pt" height="247pt"
 viewBox="0.00 0.00 330.00 246.80" xmlns="http://www.w3.org/2000/svg" xmlns:xlink="http://www.w3.org/1999/xlink">
<g id="graph0" class="graph" transform="scale(1 1) rotate(0) translate(4 242.8)">
<title>dependencies</title>
<polygon fill="white" stroke="transparent" points="-4,4 -4,-242.8 326,-242.8 326,4 -4,4"/>
<text text-anchor="middle" x="161" y="-8.2" font-family="sans-serif" font-size="14.00">dependencies</text>
<g id="clust1" class="cluster">
<title>cluster_ZenUikitLibModule</title>
<polygon fill="none" stroke="black" stroke-dasharray="1,5" points="8,-32.8 8,-230.8 314,-230.8 314,-32.8 8,-32.8"/>
</g>
<g id="clust2" class="cluster">
<title>cluster_ZenUikitLibModule_declarations</title>
<polygon fill="none" stroke="black" points="19,-40.8 19,-92.8 303,-92.8 303,-40.8 19,-40.8"/>
</g>
<g id="clust6" class="cluster">
<title>cluster_ZenUikitLibModule_exports</title>
<polygon fill="none" stroke="black" points="16,-170.8 16,-222.8 306,-222.8 306,-170.8 16,-170.8"/>
</g>
<!-- InputTextComponent -->
<g id="node1" class="node">
<title>InputTextComponent</title>
<polygon fill="#ffffb3" stroke="black" points="295.04,-84.8 158.96,-84.8 158.96,-48.8 295.04,-48.8 295.04,-84.8"/>
<text text-anchor="middle" x="227" y="-62.6" font-family="Times,serif" font-size="14.00">InputTextComponent</text>
</g>
<!-- ZenUikitLibModule -->
<g id="node3" class="node">
<title>ZenUikitLibModule</title>
<polygon fill="#8dd3c7" stroke="black" points="148.54,-149.8 145.54,-153.8 124.54,-153.8 121.54,-149.8 19.46,-149.8 19.46,-113.8 148.54,-113.8 148.54,-149.8"/>
<text text-anchor="middle" x="84" y="-127.6" font-family="Times,serif" font-size="14.00">ZenUikitLibModule</text>
</g>
<!-- InputTextComponent&#45;&gt;ZenUikitLibModule -->
<g id="edge1" class="edge">
<title>InputTextComponent&#45;&gt;ZenUikitLibModule</title>
<path fill="none" stroke="black" d="M158.65,-66.8C150.32,-66.8 144.68,-66.8 144.68,-66.8 144.68,-66.8 144.68,-103.69 144.68,-103.69"/>
<polygon fill="black" stroke="black" points="141.18,-103.69 144.68,-113.69 148.18,-103.69 141.18,-103.69"/>
</g>
<!-- TableComponent -->
<g id="node2" class="node">
<title>TableComponent</title>
<polygon fill="#ffffb3" stroke="black" points="140.7,-84.8 27.3,-84.8 27.3,-48.8 140.7,-48.8 140.7,-84.8"/>
<text text-anchor="middle" x="84" y="-62.6" font-family="Times,serif" font-size="14.00">TableComponent</text>
</g>
<!-- TableComponent&#45;&gt;ZenUikitLibModule -->
<g id="edge2" class="edge">
<title>TableComponent&#45;&gt;ZenUikitLibModule</title>
<path fill="none" stroke="black" d="M84,-84.91C84,-84.91 84,-103.79 84,-103.79"/>
<polygon fill="black" stroke="black" points="80.5,-103.79 84,-113.79 87.5,-103.79 80.5,-103.79"/>
</g>
<!-- InputTextComponent  -->
<g id="node4" class="node">
<title>InputTextComponent </title>
<polygon fill="#fb8072" stroke="black" points="298.04,-214.8 157.96,-214.8 157.96,-178.8 298.04,-178.8 298.04,-214.8"/>
<text text-anchor="middle" x="228" y="-192.6" font-family="Times,serif" font-size="14.00">InputTextComponent </text>
</g>
<!-- ZenUikitLibModule&#45;&gt;InputTextComponent  -->
<g id="edge3" class="edge">
<title>ZenUikitLibModule&#45;&gt;InputTextComponent </title>
<path fill="none" stroke="black" stroke-dasharray="5,2" d="M144.56,-149.91C144.56,-169.14 144.56,-196.8 144.56,-196.8 144.56,-196.8 147.97,-196.8 147.97,-196.8"/>
<polygon fill="black" stroke="black" points="147.97,-200.3 157.97,-196.8 147.97,-193.3 147.97,-200.3"/>
</g>
<!-- TableComponent  -->
<g id="node5" class="node">
<title>TableComponent </title>
<polygon fill="#fb8072" stroke="black" points="140.2,-214.8 23.8,-214.8 23.8,-178.8 140.2,-178.8 140.2,-214.8"/>
<text text-anchor="middle" x="82" y="-192.6" font-family="Times,serif" font-size="14.00">TableComponent </text>
</g>
<!-- ZenUikitLibModule&#45;&gt;TableComponent  -->
<g id="edge4" class="edge">
<title>ZenUikitLibModule&#45;&gt;TableComponent </title>
<path fill="none" stroke="black" stroke-dasharray="5,2" d="M82,-149.91C82,-149.91 82,-168.79 82,-168.79"/>
<polygon fill="black" stroke="black" points="78.5,-168.79 82,-178.79 85.5,-168.79 78.5,-168.79"/>
</g>
</g>
</svg>
