<?xml version="1.0" encoding="UTF-8" standalone="no"?>
<!DOCTYPE svg PUBLIC "-//W3C//DTD SVG 1.1//EN"
 "http://www.w3.org/Graphics/SVG/1.1/DTD/svg11.dtd">
<!-- Generated by graphviz version 5.0.0 (20220707.1540)
 -->
<!-- Title: dependencies Pages: 1 -->
<svg width="551pt" height="247pt"
 viewBox="0.00 0.00 551.00 246.80" xmlns="http://www.w3.org/2000/svg" xmlns:xlink="http://www.w3.org/1999/xlink">
<g id="graph0" class="graph" transform="scale(1 1) rotate(0) translate(4 242.8)">
<title>dependencies</title>
<polygon fill="white" stroke="transparent" points="-4,4 -4,-242.8 547,-242.8 547,4 -4,4"/>
<text text-anchor="middle" x="271.5" y="-8.2" font-family="sans-serif" font-size="14.00">dependencies</text>
<g id="clust1" class="cluster">
<title>cluster_ZenUikitLibModule</title>
<polygon fill="none" stroke="black" stroke-dasharray="1,5" points="8,-32.8 8,-230.8 535,-230.8 535,-32.8 8,-32.8"/>
</g>
<g id="clust2" class="cluster">
<title>cluster_ZenUikitLibModule_declarations</title>
<polygon fill="none" stroke="black" points="22,-40.8 22,-92.8 522,-92.8 522,-40.8 22,-40.8"/>
</g>
<g id="clust7" class="cluster">
<title>cluster_ZenUikitLibModule_exports</title>
<polygon fill="none" stroke="black" points="16,-170.8 16,-222.8 527,-222.8 527,-170.8 16,-170.8"/>
</g>
<!-- InputCheckboxComponent -->
<g id="node1" class="node">
<title>InputCheckboxComponent</title>
<polygon fill="#ffffb3" stroke="black" points="513.65,-84.8 346.35,-84.8 346.35,-48.8 513.65,-48.8 513.65,-84.8"/>
<text text-anchor="middle" x="430" y="-62.6" font-family="Times,serif" font-size="14.00">InputCheckboxComponent</text>
</g>
<!-- ZenUikitLibModule -->
<g id="node4" class="node">
<title>ZenUikitLibModule</title>
<polygon fill="#8dd3c7" stroke="black" points="320.54,-149.8 317.54,-153.8 296.54,-153.8 293.54,-149.8 191.46,-149.8 191.46,-113.8 320.54,-113.8 320.54,-149.8"/>
<text text-anchor="middle" x="256" y="-127.6" font-family="Times,serif" font-size="14.00">ZenUikitLibModule</text>
</g>
<!-- InputCheckboxComponent&#45;&gt;ZenUikitLibModule -->
<g id="edge1" class="edge">
<title>InputCheckboxComponent&#45;&gt;ZenUikitLibModule</title>
<path fill="none" stroke="black" d="M458.36,-84.82C458.36,-102.17 458.36,-125.8 458.36,-125.8 458.36,-125.8 330.58,-125.8 330.58,-125.8"/>
<polygon fill="black" stroke="black" points="330.58,-122.3 320.58,-125.8 330.58,-129.3 330.58,-122.3"/>
</g>
<!-- InputRadioComponent -->
<g id="node2" class="node">
<title>InputRadioComponent</title>
<polygon fill="#ffffb3" stroke="black" points="328.32,-84.8 183.68,-84.8 183.68,-48.8 328.32,-48.8 328.32,-84.8"/>
<text text-anchor="middle" x="256" y="-62.6" font-family="Times,serif" font-size="14.00">InputRadioComponent</text>
</g>
<!-- InputRadioComponent&#45;&gt;ZenUikitLibModule -->
<g id="edge2" class="edge">
<title>InputRadioComponent&#45;&gt;ZenUikitLibModule</title>
<path fill="none" stroke="black" d="M256,-84.91C256,-84.91 256,-103.79 256,-103.79"/>
<polygon fill="black" stroke="black" points="252.5,-103.79 256,-113.79 259.5,-103.79 252.5,-103.79"/>
</g>
<!-- InputTextComponent -->
<g id="node3" class="node">
<title>InputTextComponent</title>
<polygon fill="#ffffb3" stroke="black" points="166.04,-84.8 29.96,-84.8 29.96,-48.8 166.04,-48.8 166.04,-84.8"/>
<text text-anchor="middle" x="98" y="-62.6" font-family="Times,serif" font-size="14.00">InputTextComponent</text>
</g>
<!-- InputTextComponent&#45;&gt;ZenUikitLibModule -->
<g id="edge3" class="edge">
<title>InputTextComponent&#45;&gt;ZenUikitLibModule</title>
<path fill="none" stroke="black" d="M119.26,-84.82C119.26,-102.17 119.26,-125.8 119.26,-125.8 119.26,-125.8 181.23,-125.8 181.23,-125.8"/>
<polygon fill="black" stroke="black" points="181.23,-129.3 191.23,-125.8 181.23,-122.3 181.23,-129.3"/>
</g>
<!-- InputCheckboxComponent  -->
<g id="node5" class="node">
<title>InputCheckboxComponent </title>
<polygon fill="#fb8072" stroke="black" points="518.65,-214.8 347.35,-214.8 347.35,-178.8 518.65,-178.8 518.65,-214.8"/>
<text text-anchor="middle" x="433" y="-192.6" font-family="Times,serif" font-size="14.00">InputCheckboxComponent </text>
</g>
<!-- ZenUikitLibModule&#45;&gt;InputCheckboxComponent  -->
<g id="edge4" class="edge">
<title>ZenUikitLibModule&#45;&gt;InputCheckboxComponent </title>
<path fill="none" stroke="black" stroke-dasharray="5,2" d="M320.86,-137.8C360.21,-137.8 402.89,-137.8 402.89,-137.8 402.89,-137.8 402.89,-168.78 402.89,-168.78"/>
<polygon fill="black" stroke="black" points="399.39,-168.78 402.89,-178.78 406.39,-168.78 399.39,-168.78"/>
</g>
<!-- InputRadioComponent  -->
<g id="node6" class="node">
<title>InputRadioComponent </title>
<polygon fill="#fb8072" stroke="black" points="329.82,-214.8 182.18,-214.8 182.18,-178.8 329.82,-178.8 329.82,-214.8"/>
<text text-anchor="middle" x="256" y="-192.6" font-family="Times,serif" font-size="14.00">InputRadioComponent </text>
</g>
<!-- ZenUikitLibModule&#45;&gt;InputRadioComponent  -->
<g id="edge5" class="edge">
<title>ZenUikitLibModule&#45;&gt;InputRadioComponent </title>
<path fill="none" stroke="black" stroke-dasharray="5,2" d="M256,-149.91C256,-149.91 256,-168.79 256,-168.79"/>
<polygon fill="black" stroke="black" points="252.5,-168.79 256,-178.79 259.5,-168.79 252.5,-168.79"/>
</g>
<!-- InputTextComponent  -->
<g id="node7" class="node">
<title>InputTextComponent </title>
<polygon fill="#fb8072" stroke="black" points="164.04,-214.8 23.96,-214.8 23.96,-178.8 164.04,-178.8 164.04,-214.8"/>
<text text-anchor="middle" x="94" y="-192.6" font-family="Times,serif" font-size="14.00">InputTextComponent </text>
</g>
<!-- ZenUikitLibModule&#45;&gt;InputTextComponent  -->
<g id="edge6" class="edge">
<title>ZenUikitLibModule&#45;&gt;InputTextComponent </title>
<path fill="none" stroke="black" stroke-dasharray="5,2" d="M191.24,-137.8C139.11,-137.8 74.49,-137.8 74.49,-137.8 74.49,-137.8 74.49,-168.78 74.49,-168.78"/>
<polygon fill="black" stroke="black" points="70.99,-168.78 74.49,-178.78 77.99,-168.78 70.99,-168.78"/>
</g>
</g>
</svg>
